<?xml version="1.0"?>
<svg width="237" height="56" xmlns="http://www.w3.org/2000/svg" xmlns:svg="http://www.w3.org/2000/svg">
 <defs>
  <clipPath id="clip0_2026_1034">
   <rect fill="white" height="56" id="svg_1" width="236.72"/>
  </clipPath>
 </defs>
 <g class="layer">
  <title>Layer 1</title>
  <g class="layer" id="svg_27">
   <g clip-path="url(#clip0_2026_1034)" id="svg_2">
    <path d="m35.54,5.42c0,1.07 -0.32,2.11 -0.91,3c-0.6,0.9 -1.44,1.59 -2.43,2c-0.99,0.41 -2.08,0.52 -3.13,0.31c-1.05,-0.21 -2.02,-0.73 -2.77,-1.48c-0.76,-0.76 -1.28,-1.73 -1.49,-2.78c-0.21,-1.05 -0.1,-2.14 0.31,-3.13c0.41,-0.99 1.11,-1.83 2,-2.43c0.89,-0.59 1.93,-0.91 3,-0.91c1.44,0 2.82,0.57 3.83,1.59c1.02,1.01 1.59,2.39 1.59,3.83z" fill="white" id="svg_3"/>
    <path d="m0,13.25l0,9.49l55.54,0l0,4.01l-30.14,0l0,29.25l9.48,0l0,-19.77l30.14,0l0,-22.98l-65.02,0z" fill="white" id="svg_4"/>
    <path d="m44.15,45.42l8.43,0l0,1.69l-3.23,0l0,7.24l-1.96,0l0,-7.24l-3.24,0l0,-1.69z" fill="white" id="svg_5"/>
    <path d="m56.44,50.92l2.79,0l-1.35,-3.16l-0.09,0l-1.35,3.16zm0.6,-5.5l1.66,0l4.17,8.93l-2.15,0l-0.83,-1.89l-4.13,0l-0.81,1.89l-2.04,0l4.13,-8.93z" fill="white" id="svg_6"/>
    <path d="m67.07,47.08l0,2.33l3.07,0c0.37,0.03 0.74,-0.09 1.02,-0.34c0.23,-0.22 0.35,-0.52 0.36,-0.83c0,-0.3 -0.12,-0.59 -0.33,-0.81c-0.14,-0.13 -0.31,-0.23 -0.49,-0.29c-0.18,-0.07 -0.37,-0.09 -0.56,-0.08l-3.07,0.02zm-1.95,7.27l0,-8.94l4.95,0c1.25,0 2.11,0.36 2.69,0.99c0.47,0.5 0.73,1.15 0.73,1.83c0,0.37 -0.07,0.73 -0.22,1.07c-0.14,0.34 -0.35,0.64 -0.61,0.9c-0.57,0.53 -1.36,0.86 -2.58,0.86l-3.01,0l0,3.29l-1.95,0z" fill="white" id="svg_7"/>
    <path d="m77.95,45.42l-1.96,0l0,8.93l1.96,0l0,-8.93z" fill="white" id="svg_8"/>
    <path d="m89.67,45.42l0,8.93l-1.7,0l-4.54,-5.52l-0.01,0l0,5.52l-1.97,0l0,-8.93l1.68,0l4.56,5.54l0.01,0l0,-5.54l1.97,0z" fill="white" id="svg_9"/>
    <path d="m100.27,47.96c-0.81,-0.69 -1.84,-1.09 -2.91,-1.12c-0.79,0.04 -1.54,0.39 -2.08,0.97c-0.54,0.58 -0.83,1.35 -0.81,2.14c0.02,0.8 0.34,1.55 0.91,2.1c0.56,0.56 1.32,0.87 2.11,0.88c0.8,0.01 1.59,-0.2 2.27,-0.6l0,-1.5l-2.69,0l0,-1.62l4.53,0l0,4.01c-1.22,0.88 -2.68,1.37 -4.19,1.4c-2.86,0 -5,-2.11 -5,-4.74c0.01,-0.63 0.15,-1.26 0.4,-1.84c0.25,-0.58 0.62,-1.11 1.08,-1.55c0.45,-0.44 0.99,-0.79 1.59,-1.02c0.59,-0.23 1.22,-0.34 1.86,-0.32c1.55,0.04 3.04,0.61 4.24,1.6l-1.31,1.21z" fill="white" id="svg_10"/>
    <path d="m111.08,50.25c-0.29,0.11 -0.55,0.31 -0.74,0.56c-0.19,0.26 -0.29,0.57 -0.31,0.89c0,0.95 0.87,1.27 1.55,1.27c0.58,-0.02 1.15,-0.2 1.64,-0.52l-2.14,-2.2zm3.3,-2.42c-0.54,-0.29 -1.13,-0.47 -1.74,-0.51c-0.6,0 -0.89,0.31 -0.89,0.64c0,0.59 0.9,1.39 1.17,1.65l1.66,1.73c0.56,-0.6 1.06,-1.25 1.49,-1.95l1.45,0.71c-0.54,0.84 -1.16,1.63 -1.85,2.35l1.83,1.9l-2.42,0l-0.75,-0.76c-0.89,0.61 -1.94,0.95 -3.02,0.97c-1.48,0 -3.21,-0.8 -3.21,-2.73c0,-1.4 0.93,-2.17 2.08,-2.62c-0.25,-0.36 -0.39,-0.78 -0.39,-1.22c0,-1.42 1.33,-2.3 2.84,-2.3c0.89,0.04 1.76,0.26 2.55,0.67l-0.8,1.47z" fill="white" id="svg_11"/>
    <path d="m130,45.41l0,5.71c0,2.23 -1.6,3.48 -3.83,3.48c-2.3,0 -3.26,-1.43 -3.75,-2.45l1.67,-0.86c0.3,0.69 0.86,1.63 2.08,1.63c1.09,0 1.87,-0.63 1.87,-1.8l0,-5.71l1.96,0z" fill="white" id="svg_12"/>
    <path d="m137.63,52.94c0.4,0 0.8,-0.08 1.17,-0.24c0.37,-0.15 0.71,-0.38 0.99,-0.66c0.28,-0.29 0.51,-0.63 0.66,-1c0.15,-0.37 0.23,-0.77 0.23,-1.18c-0.01,-0.4 -0.09,-0.79 -0.24,-1.16c-0.15,-0.37 -0.38,-0.7 -0.66,-0.98c-0.29,-0.28 -0.62,-0.5 -0.99,-0.65c-0.37,-0.15 -0.77,-0.23 -1.16,-0.23c-0.4,0 -0.79,0.08 -1.16,0.23c-0.36,0.16 -0.69,0.38 -0.97,0.66c-0.28,0.28 -0.5,0.61 -0.65,0.98c-0.15,0.37 -0.22,0.76 -0.22,1.15c-0.01,0.4 0.07,0.8 0.21,1.17c0.15,0.37 0.37,0.71 0.65,1c0.28,0.28 0.61,0.51 0.98,0.67c0.36,0.15 0.76,0.24 1.16,0.24zm0,-7.8c2.82,0 5.1,2.12 5.1,4.72c0,2.6 -2.28,4.77 -5.1,4.77c-2.83,0 -5.05,-2.11 -5.05,-4.77c0,-2.65 2.21,-4.72 5.05,-4.72z" fill="white" id="svg_13"/>
    <path d="m147.41,45.42l-1.96,0l0,8.93l1.96,0l0,-8.93z" fill="white" id="svg_14"/>
    <path d="m159.13,45.42l0,8.93l-1.7,0l-4.54,-5.52l-0.01,0l0,5.52l-1.97,0l0,-8.93l1.68,0l4.56,5.54l0.01,0l0,-5.54l1.97,0z" fill="white" id="svg_15"/>
    <path d="m161.58,45.42l8.43,0l0,1.69l-3.23,0l0,7.24l-1.96,0l0,-7.24l-3.24,0l0,-1.69z" fill="white" id="svg_16"/>
    <path d="m174.41,45.42l-1.95,0l0,8.93l1.95,0l0,-8.93z" fill="white" id="svg_17"/>
    <path d="m186.14,45.42l0,8.93l-1.7,0l-4.54,-5.52l-0.01,0l0,5.52l-1.98,0l0,-8.93l1.69,0l4.56,5.54l0.01,0l0,-5.54l1.97,0z" fill="white" id="svg_18"/>
    <path d="m196.74,47.96c-0.81,-0.69 -1.84,-1.09 -2.92,-1.12c-0.79,0.04 -1.53,0.39 -2.07,0.97c-0.54,0.58 -0.83,1.35 -0.81,2.14c0.02,0.79 0.34,1.55 0.9,2.1c0.57,0.56 1.33,0.87 2.12,0.88c0.8,0.01 1.58,-0.2 2.27,-0.6l0,-1.5l-2.69,0l0,-1.62l4.51,0l0,4.01c-1.21,0.87 -2.67,1.36 -4.16,1.4c-2.86,0 -5,-2.11 -5,-4.74c0.01,-0.63 0.14,-1.26 0.4,-1.84c0.25,-0.58 0.62,-1.11 1.07,-1.55c0.46,-0.44 1,-0.79 1.59,-1.02c0.6,-0.23 1.23,-0.34 1.86,-0.32c1.56,0.04 3.05,0.61 4.24,1.6l-1.31,1.21z" fill="white" id="svg_19"/>
    <path d="m206.71,45.42l0,7.56l5.49,0l0,1.37l-7.01,0l0,-8.93l1.52,0z" fill="white" id="svg_20"/>
    <path d="m212.52,45.42l8.55,0l0,1.37l-3.5,0l0,7.56l-1.54,0l0,-7.56l-3.51,0l0,-1.37z" fill="white" id="svg_21"/>
    <path d="m227.92,52.98c0.37,0.04 0.75,0 1.1,-0.12c0.36,-0.12 0.68,-0.32 0.95,-0.57c0.61,-0.65 0.94,-1.52 0.92,-2.41c0.03,-0.86 -0.28,-1.7 -0.86,-2.34c-0.28,-0.27 -0.61,-0.48 -0.97,-0.61c-0.36,-0.13 -0.75,-0.18 -1.14,-0.14l-2.68,0l0,6.19l2.68,0zm-4.2,1.37l0,-8.94l4.28,0c1.62,0 2.5,0.45 3.28,1.19c0.81,0.93 1.24,2.12 1.23,3.35c-0.02,1.23 -0.49,2.41 -1.32,3.32c-0.77,0.68 -1.57,1.09 -3.19,1.09l-4.28,-0.01z" fill="white" id="svg_22"/>
    <path d="m235.63,52.58c0.13,-0.02 0.27,0 0.4,0.04c0.14,0.05 0.26,0.12 0.36,0.21c0.1,0.09 0.18,0.21 0.24,0.34c0.06,0.12 0.08,0.26 0.08,0.4c0,0.14 -0.02,0.27 -0.08,0.4c-0.06,0.13 -0.14,0.24 -0.24,0.33c-0.1,0.1 -0.22,0.17 -0.36,0.21c-0.13,0.04 -0.27,0.06 -0.4,0.05c-0.14,0.01 -0.28,-0.01 -0.41,-0.05c-0.13,-0.04 -0.25,-0.11 -0.35,-0.21c-0.11,-0.09 -0.19,-0.2 -0.24,-0.33c-0.06,-0.13 -0.09,-0.26 -0.09,-0.4c0,-0.14 0.03,-0.28 0.09,-0.4c0.05,-0.13 0.13,-0.25 0.24,-0.34c0.1,-0.09 0.22,-0.16 0.35,-0.21c0.13,-0.04 0.27,-0.06 0.41,-0.04z" fill="white" id="svg_23"/>
    <path d="m72.44,13.26l21.78,0l0,4.39l-8.35,0l0,18.7l-5.05,0l0,-18.7l-8.38,0l0,-4.39z" fill="white" id="svg_24"/>
    <path d="m105.59,17.54l0,6.05l7.92,0c0.96,0.07 1.92,-0.25 2.65,-0.89c0.56,-0.56 0.89,-1.32 0.91,-2.12c0,-0.77 -0.3,-1.52 -0.84,-2.08c-0.77,-0.81 -1.8,-0.95 -2.72,-0.95l-7.92,-0.01zm-5.05,18.81l0,-23.09l12.78,0c3.25,0 5.44,0.93 6.96,2.55c1.26,1.34 1.94,3.13 1.88,4.98c-0.05,1.84 -0.84,3.58 -2.18,4.85c-1.45,1.38 -3.49,2.22 -6.64,2.22l-7.75,0l0,8.49l-5.05,0z" fill="white" id="svg_25"/>
    <path d="m127.33,19.1l4.7,0l0,17.24l-4.7,0l0,-17.24zm2.33,-7.81c0.72,-0.03 1.42,0.22 1.95,0.71c0.52,0.48 0.84,1.15 0.88,1.87c0,1.38 -1.25,2.5 -2.83,2.5c-1.57,0 -2.79,-1.13 -2.79,-2.5c0.01,-0.36 0.09,-0.7 0.24,-1.03c0.14,-0.32 0.36,-0.61 0.61,-0.85c0.26,-0.24 0.57,-0.42 0.9,-0.55c0.34,-0.12 0.69,-0.17 1.04,-0.15z" fill="white" id="svg_26"/>
   </g>
  </g>
 </g>
</svg>